<?xml version="1.0" encoding="utf-8"?>
<!-- Generator: Adobe Illustrator 19.2.0, SVG Export Plug-In . SVG Version: 6.00 Build 0)  -->
<svg version="1.1" id="Layer_1" xmlns="http://www.w3.org/2000/svg" xmlns:xlink="http://www.w3.org/1999/xlink" x="0px" y="0px"
	 viewBox="0 0 51 51" style="enable-background:new 0 0 51 51;" xml:space="preserve">
<style type="text/css">
	.st0{opacity:0.3;enable-background:new    ;}
	.st1{fill:#68213A;}
	.st2{fill:url(#face_2_);}
	.st3{opacity:0.15;enable-background:new    ;}
	.st4{opacity:0.3;fill:#9E3052;}
</style>
<path id="outer-shadow" class="st0" d="M26.1,46.9c-5.6,0-10.8-2.2-14.7-6.1s-6.1-9.1-6.1-14.7s2.2-10.8,6.1-14.7s9.1-6.1,14.7-6.1
	s10.8,2.2,14.7,6.1s6.1,9.1,6.1,14.7s-2.2,10.8-6.1,14.7S31.7,46.9,26.1,46.9z"/>
<path id="outer-shadow_1_" class="st1" d="M25.1,45.9c-5.6,0-10.8-2.2-14.7-6.1s-6.1-9.1-6.1-14.7s2.2-10.8,6.1-14.7
	s9.1-6.1,14.7-6.1s10.8,2.2,14.7,6.1s6.1,9.1,6.1,14.7s-2.2,10.8-6.1,14.7S30.7,45.9,25.1,45.9z"/>
<linearGradient id="face_2_" gradientUnits="userSpaceOnUse" x1="12.4509" y1="501.5491" x2="37.7491" y2="476.2509" gradientTransform="matrix(1 0 0 -1 0 514)">
	<stop  offset="0" style="stop-color:#FFFFFF"/>
	<stop  offset="1" style="stop-color:#C7C7C7"/>
</linearGradient>
<path id="face_1_" class="st2" d="M25.1,43c-4.8,0-9.3-1.9-12.6-5.2s-5.2-7.9-5.2-12.6s1.9-9.3,5.2-12.6s7.9-5.2,12.6-5.2
	s9.3,1.9,12.6,5.2c3.4,3.4,5.2,7.9,5.2,12.6s-1.9,9.3-5.2,12.6C34.4,41.1,29.9,43,25.1,43z"/>
<g id="shadow">
	<path id="face-shadow" class="st3" d="M7.8,25.6c0-4.8,1.9-9.3,5.2-12.6s7.9-5.2,12.6-5.2c4.7,0,9,1.8,12.4,5
		c-0.1-0.1-0.2-0.2-0.3-0.3c-3.4-3.4-7.9-5.2-12.6-5.2s-9.3,1.9-12.6,5.2s-5.2,7.9-5.2,12.6s1.9,9.3,5.2,12.6
		c0.1,0.1,0.2,0.2,0.3,0.3C9.5,34.7,7.8,30.3,7.8,25.6z"/>
</g>
<path class="st4" d="M36.6,38.8c0.4-0.3,0.8-0.7,1.1-1c3.4-3.4,5.2-7.9,5.2-12.6s-1.9-9.3-5.2-12.6c-3.4-3.4-7.9-5.2-12.6-5.2v17.9
	L36.6,38.8z"/>
<g id="arm">
	<path id="arm_1_" class="st1" d="M24.2,25.8c-0.4-0.5-0.3-1.2,0.1-1.6c0.5-0.4,1.2-0.3,1.6,0.1c0.3,0.4,9.4,11.2,9.4,11.2l0.9,2.9
		L33.6,37C33.6,37,24.5,26.1,24.2,25.8z"/>
</g>
</svg>
